<svg width="96" height="34" viewBox="0 0 96 34" fill="none" xmlns="http://www.w3.org/2000/svg">
<g id="Group 1938">
<g id="Vector">
<mask id="path-1-inside-1_15848_9355" fill="white">
<path d="M41.2112 13.4428C40.8187 12.4098 40.0126 11.4875 39.0315 10.8226C36.1993 9.01974 31.8831 8.89135 28.9648 10.5212C27.3732 11.3346 26.3271 12.9444 26.0016 14.6022C25.4111 17.3258 25.5636 20.5663 27.6567 22.6078C30.0974 24.7527 33.6497 25.2265 36.8084 24.3455C36.9585 24.3165 37.4341 24.1965 37.7621 24.022L37.8545 23.9823C38.8355 23.5737 39.7711 22.9082 40.4697 22.007C42.0818 19.6441 42.1923 16.1036 41.2112 13.4428ZM36.0683 19.5588C35.9569 20.0753 35.6103 20.6104 35.0638 20.8045C34.1937 21.1882 33.0166 21.0818 32.2106 20.633C31.5345 20.1591 31.4475 19.3658 31.3605 18.615C31.2945 17.1351 31.188 15.568 31.6015 14.215C31.9256 13.3771 32.8196 13.1615 33.6281 13.0983C34.4772 13.0983 35.3038 13.2281 35.8283 13.9147C36.1549 14.4071 36.1348 15.0515 36.1993 15.6317C36.1764 16.8544 36.2859 18.3127 36.0683 19.5588ZM10.2455 20.8917C9.52594 20.8476 8.71987 20.9108 8.02331 20.8251L8.04481 13.2894L8.08881 13.2267L10.2455 13.2056C10.268 11.9825 10.2895 10.6707 10.223 9.55583L2.00936 9.5328L0.6568 9.55632C0.635292 10.6932 0.635292 12.0226 0.6568 13.183C1.39834 13.2061 2.09442 13.183 2.81396 13.2502V20.5482L2.79294 20.8481L0.635292 20.8922C0.590319 22.0724 0.590319 23.2539 0.635292 24.4341H10.245L10.2455 20.8917ZM34.4323 26.0424C33.5182 27.3533 32.3631 28.6195 31.1019 29.6045C31.056 29.6716 30.9255 29.6461 30.8839 29.5844C30.3374 29.2418 29.7494 28.9615 29.2253 28.6195C29.9234 27.783 30.5994 26.946 31.1225 26.0194H30.4445C29.9029 26.8167 29.3348 27.6532 28.6163 28.3593C27.6567 27.9736 26.7857 27.6306 25.8051 27.3709L25.6961 27.2891C25.8486 26.8554 26.1311 26.4482 26.2176 26.0184H25.6296L25.0415 27.1783C23.7574 26.8995 22.3403 26.7476 21.0327 26.6628C20.9667 26.4702 21.0533 26.1909 20.9667 26.0184H20.4002C20.3552 26.2767 20.4657 26.4712 20.3347 26.6854C18.9836 26.7476 17.6765 26.8995 16.4139 27.1597L15.8234 26.0184C15.6078 26.0184 15.3654 25.9773 15.2148 26.0415L15.7584 27.3082L15.6934 27.3709C14.7167 27.6542 13.7565 27.9915 12.8172 28.3813L12.7306 28.3372C12.1191 27.6718 11.5306 26.9451 11.0506 26.2149C10.9425 25.8479 10.5065 26.0625 10.2665 26.0194C10.7876 26.9652 11.4871 27.8011 12.1832 28.6612C11.5951 29.0056 11.009 29.3898 10.396 29.6716C9.06312 28.6539 7.90118 27.4291 6.95426 26.0434C6.69225 26.0013 6.5197 26.0204 6.25622 26.0434C7.82533 28.4906 10.2665 30.6365 12.8162 31.9032C12.8162 31.9032 12.8162 31.8841 12.8396 31.8841C12.8582 31.8841 12.9017 31.9238 12.8582 31.9463C14.5808 32.7838 16.4124 33.3846 18.3501 33.6433C25.0406 34.5224 31.426 31.669 35.1283 26.0434C34.8969 26.0195 34.6637 26.0192 34.4323 26.0424ZM25.3475 27.9741L25.4116 27.931C26.3511 28.1456 27.2427 28.4465 28.0712 28.8532C27.3732 29.6456 26.4797 30.3341 25.6526 30.9133C25.152 31.2127 24.649 31.5381 24.1255 31.7939L23.1904 31.3862L23.2544 31.2377C24.0404 30.1866 24.738 29.112 25.3475 27.9741ZM21.0533 27.3297C22.2963 27.3533 23.5389 27.4816 24.692 27.7595L24.715 27.8247C24.1059 28.9826 23.3414 30.1014 22.5148 31.151C22.1424 31.1951 21.7953 31.0466 21.4253 31.0236L21.0528 30.9795C21.0103 29.7128 20.9873 28.5965 21.0533 27.3297ZM16.8494 27.7159C17.9825 27.5013 19.1586 27.3297 20.3782 27.3297L20.4007 30.9614C19.9422 31.0652 19.4411 31.0652 19.0051 31.1755C18.1116 30.121 17.3715 28.9826 16.7404 27.8012L16.8494 27.7159ZM13.3392 28.8763C14.1912 28.4671 15.0833 28.1648 15.9974 27.9305L16.0859 27.9531C16.716 29.134 17.5015 30.2493 18.2856 31.3656C17.983 31.5386 17.6105 31.642 17.3065 31.8165C15.8328 31.0867 14.4919 30.114 13.3397 28.939V28.8763H13.3392ZM16.1514 32.5466C14.3208 32.0728 12.6197 31.2573 11.0511 30.143V30.0764C11.5741 29.7574 12.0991 29.4129 12.6637 29.1742C13.9067 30.4013 15.1913 31.3245 16.586 32.2026C16.4774 32.3315 16.3034 32.4609 16.1514 32.5466ZM24.235 32.824C21.9258 33.3209 19.3532 33.34 17.0445 32.7828C17.0005 32.676 17.1535 32.6529 17.2185 32.5902C19.2451 31.2794 22.4034 31.2794 24.3885 32.6946C24.453 32.824 24.279 32.7828 24.235 32.824ZM26.3276 32.2251L25.3036 32.5461C25.1286 32.4604 24.977 32.3315 24.823 32.2021L24.867 32.1365C26.2621 31.324 27.5252 30.3336 28.7243 29.1531C29.3128 29.3888 29.8799 29.7128 30.4044 30.0759C29.1828 31.0466 27.7657 31.6876 26.3276 32.2251ZM6.91173 7.90198C7.45073 7.15422 8.04033 6.44445 8.67637 5.7777C9.24095 5.24111 9.76595 4.72609 10.377 4.33798C10.944 4.70257 11.5751 5.00639 12.1196 5.34843C11.4446 6.18148 10.747 7.02237 10.246 7.92158C10.3975 7.98871 10.682 7.96764 10.9005 7.92158C11.4446 7.12871 12.0311 6.33486 12.7311 5.62579C13.6657 5.97028 14.5823 6.33388 15.5423 6.59262L15.6269 6.67788L15.0843 7.92158C15.3248 7.96764 15.4773 7.9451 15.7154 7.92158C15.9109 7.55896 16.0624 7.15223 16.2804 6.7852C17.546 7.0655 18.8756 7.21496 20.2267 7.25661C20.3997 7.40901 20.2697 7.72949 20.3352 7.92158H20.9232C20.9873 7.71087 20.9012 7.47173 20.9873 7.28062C22.2523 7.21398 23.581 7.0851 24.8054 6.78422L24.9115 6.80676L25.5001 7.9206C25.6966 7.9206 25.9576 7.96666 26.1101 7.8765L25.5641 6.63476L25.6096 6.59164C26.6102 6.33388 27.5487 5.94774 28.5073 5.56208C29.1848 6.27018 29.8149 7.10715 30.3834 7.92011C30.6219 7.92011 30.8619 7.94363 31.0364 7.87601C30.7673 7.39676 30.4534 6.94422 30.0989 6.5245C29.8111 6.1134 29.49 5.72676 29.1388 5.36852V5.25728L30.6644 4.37866L30.8844 4.2929C32.2111 5.29961 33.3722 6.50867 34.3252 7.87601C34.5867 7.87601 34.8052 7.96617 35.0237 7.85788C32.1006 3.48239 27.2857 0.667164 22.0803 0.261909L22.0573 0.303561L22.0128 0.261909C21.4253 0.198695 20.7033 0.173703 20.0722 0.236917C19.8332 0.218296 19.5506 0.236917 19.2666 0.261909C14.0377 0.667164 9.22238 3.35204 6.2137 7.92256C6.43171 7.90198 6.69323 7.9892 6.91173 7.90198ZM15.9564 6.01585L15.8693 6.03447C14.9748 5.80073 14.1023 5.51896 13.2742 5.15536L13.3162 5.02648C14.5148 3.88912 15.7784 2.94385 17.173 2.21566C17.5015 2.34454 17.828 2.45088 18.1546 2.60328L18.0905 2.77087C17.261 3.80385 16.6089 4.91769 15.9564 6.01585ZM20.2912 6.5936C19.6826 6.67935 19.1376 6.57449 18.5251 6.52695C17.9395 6.44071 17.197 6.37847 16.6089 6.18246C17.241 5.00737 17.983 3.86756 18.8756 2.8184L20.2707 3.00902C20.3352 4.12335 20.2912 5.41213 20.2912 6.5936ZM20.9663 6.61663C20.9232 5.47535 20.9457 4.21058 20.9663 3.0296C21.4038 2.96688 21.8808 2.90023 22.3178 2.83702C23.1674 3.90872 23.9974 5.00737 24.5645 6.18246C23.3862 6.46824 22.1785 6.61396 20.9663 6.61663ZM27.9197 5.11174C27.0682 5.47486 26.1956 5.81886 25.26 6.01585C24.585 4.878 23.8444 3.74064 23.0139 2.6415C23.3194 2.47342 23.6919 2.34454 24.018 2.17352C25.437 2.88112 26.8081 3.88912 27.9618 5.04461L27.9197 5.11174ZM25.1286 1.44141C26.9592 1.91478 28.6808 2.72921 30.2499 3.8455L30.2064 3.93126L28.7043 4.76725H28.5933C27.4402 3.61225 26.0896 2.60328 24.715 1.80698C24.7585 1.65654 24.9775 1.54824 25.1286 1.44141ZM24.258 1.2258V1.27137C22.3609 2.6415 19.2891 2.77087 17.2855 1.50414C17.173 1.41838 16.9579 1.37673 16.9345 1.22629C19.2456 0.692156 21.9678 0.649033 24.258 1.2258ZM10.9645 3.88912C12.3386 2.88112 13.8632 2.12991 15.4763 1.61439C15.5423 1.54726 15.5844 1.48405 15.6704 1.48405V1.52815C15.8444 1.57029 15.9759 1.37575 16.1279 1.50316C16.2594 1.61439 16.4134 1.69917 16.5209 1.806C15.1708 2.6415 13.8407 3.63087 12.6202 4.83047C12.0316 4.61975 11.489 4.29584 10.964 3.93126L10.9645 3.88912ZM20.3137 21.0593C18.2655 21.6184 16.0414 21.1921 14.5603 19.6441C14.3868 19.4295 14.2768 19.1737 14.1018 18.96L11.161 18.9806C11.1146 20.7187 11.0941 22.7156 11.161 24.4337L14.4283 24.4126L14.4718 23.3816C14.8438 23.5531 15.2148 23.7672 15.5844 23.9598C17.8505 24.9056 20.7678 25.1202 23.0129 23.9598C24.6485 23.0606 25.5206 21.3225 25.2801 19.451C25.0415 17.6286 23.2974 15.9747 21.5338 15.5254L16.2589 13.9999L15.8689 13.8059C15.6943 13.6569 15.5849 13.4648 15.6274 13.2267C16.0414 12.52 17.0014 12.7347 17.7205 12.7538C19.2456 12.9689 20.8142 13.4839 21.7083 14.88C22.6659 14.88 23.777 14.8986 24.8221 14.8575C24.8665 13.0978 24.805 11.5532 24.779 9.77096C23.7985 9.74841 22.5994 9.74841 21.6203 9.7935C21.5763 10.0488 21.6623 10.4124 21.5533 10.6711L20.5517 10.1341C18.1536 9.12558 14.7974 9.02023 12.6192 10.5873C11.2021 11.6159 10.7675 13.4638 11.1381 15.0946C11.4201 16.6378 12.9017 17.7766 14.3188 18.3117C16.258 18.9977 18.2836 19.4946 20.2482 20.1591C20.4427 20.2463 20.7038 20.4409 20.6617 20.6766C20.6627 20.8672 20.4652 20.9775 20.3137 21.0593Z"/>
</mask>
<path d="M41.2112 13.4428C40.8187 12.4098 40.0126 11.4875 39.0315 10.8226C36.1993 9.01974 31.8831 8.89135 28.9648 10.5212C27.3732 11.3346 26.3271 12.9444 26.0016 14.6022C25.4111 17.3258 25.5636 20.5663 27.6567 22.6078C30.0974 24.7527 33.6497 25.2265 36.8084 24.3455C36.9585 24.3165 37.4341 24.1965 37.7621 24.022L37.8545 23.9823C38.8355 23.5737 39.7711 22.9082 40.4697 22.007C42.0818 19.6441 42.1923 16.1036 41.2112 13.4428ZM36.0683 19.5588C35.9569 20.0753 35.6103 20.6104 35.0638 20.8045C34.1937 21.1882 33.0166 21.0818 32.2106 20.633C31.5345 20.1591 31.4475 19.3658 31.3605 18.615C31.2945 17.1351 31.188 15.568 31.6015 14.215C31.9256 13.3771 32.8196 13.1615 33.6281 13.0983C34.4772 13.0983 35.3038 13.2281 35.8283 13.9147C36.1549 14.4071 36.1348 15.0515 36.1993 15.6317C36.1764 16.8544 36.2859 18.3127 36.0683 19.5588ZM10.2455 20.8917C9.52594 20.8476 8.71987 20.9108 8.02331 20.8251L8.04481 13.2894L8.08881 13.2267L10.2455 13.2056C10.268 11.9825 10.2895 10.6707 10.223 9.55583L2.00936 9.5328L0.6568 9.55632C0.635292 10.6932 0.635292 12.0226 0.6568 13.183C1.39834 13.2061 2.09442 13.183 2.81396 13.2502V20.5482L2.79294 20.8481L0.635292 20.8922C0.590319 22.0724 0.590319 23.2539 0.635292 24.4341H10.245L10.2455 20.8917ZM34.4323 26.0424C33.5182 27.3533 32.3631 28.6195 31.1019 29.6045C31.056 29.6716 30.9255 29.6461 30.8839 29.5844C30.3374 29.2418 29.7494 28.9615 29.2253 28.6195C29.9234 27.783 30.5994 26.946 31.1225 26.0194H30.4445C29.9029 26.8167 29.3348 27.6532 28.6163 28.3593C27.6567 27.9736 26.7857 27.6306 25.8051 27.3709L25.6961 27.2891C25.8486 26.8554 26.1311 26.4482 26.2176 26.0184H25.6296L25.0415 27.1783C23.7574 26.8995 22.3403 26.7476 21.0327 26.6628C20.9667 26.4702 21.0533 26.1909 20.9667 26.0184H20.4002C20.3552 26.2767 20.4657 26.4712 20.3347 26.6854C18.9836 26.7476 17.6765 26.8995 16.4139 27.1597L15.8234 26.0184C15.6078 26.0184 15.3654 25.9773 15.2148 26.0415L15.7584 27.3082L15.6934 27.3709C14.7167 27.6542 13.7565 27.9915 12.8172 28.3813L12.7306 28.3372C12.1191 27.6718 11.5306 26.9451 11.0506 26.2149C10.9425 25.8479 10.5065 26.0625 10.2665 26.0194C10.7876 26.9652 11.4871 27.8011 12.1832 28.6612C11.5951 29.0056 11.009 29.3898 10.396 29.6716C9.06312 28.6539 7.90118 27.4291 6.95426 26.0434C6.69225 26.0013 6.5197 26.0204 6.25622 26.0434C7.82533 28.4906 10.2665 30.6365 12.8162 31.9032C12.8162 31.9032 12.8162 31.8841 12.8396 31.8841C12.8582 31.8841 12.9017 31.9238 12.8582 31.9463C14.5808 32.7838 16.4124 33.3846 18.3501 33.6433C25.0406 34.5224 31.426 31.669 35.1283 26.0434C34.8969 26.0195 34.6637 26.0192 34.4323 26.0424ZM25.3475 27.9741L25.4116 27.931C26.3511 28.1456 27.2427 28.4465 28.0712 28.8532C27.3732 29.6456 26.4797 30.3341 25.6526 30.9133C25.152 31.2127 24.649 31.5381 24.1255 31.7939L23.1904 31.3862L23.2544 31.2377C24.0404 30.1866 24.738 29.112 25.3475 27.9741ZM21.0533 27.3297C22.2963 27.3533 23.5389 27.4816 24.692 27.7595L24.715 27.8247C24.1059 28.9826 23.3414 30.1014 22.5148 31.151C22.1424 31.1951 21.7953 31.0466 21.4253 31.0236L21.0528 30.9795C21.0103 29.7128 20.9873 28.5965 21.0533 27.3297ZM16.8494 27.7159C17.9825 27.5013 19.1586 27.3297 20.3782 27.3297L20.4007 30.9614C19.9422 31.0652 19.4411 31.0652 19.0051 31.1755C18.1116 30.121 17.3715 28.9826 16.7404 27.8012L16.8494 27.7159ZM13.3392 28.8763C14.1912 28.4671 15.0833 28.1648 15.9974 27.9305L16.0859 27.9531C16.716 29.134 17.5015 30.2493 18.2856 31.3656C17.983 31.5386 17.6105 31.642 17.3065 31.8165C15.8328 31.0867 14.4919 30.114 13.3397 28.939V28.8763H13.3392ZM16.1514 32.5466C14.3208 32.0728 12.6197 31.2573 11.0511 30.143V30.0764C11.5741 29.7574 12.0991 29.4129 12.6637 29.1742C13.9067 30.4013 15.1913 31.3245 16.586 32.2026C16.4774 32.3315 16.3034 32.4609 16.1514 32.5466ZM24.235 32.824C21.9258 33.3209 19.3532 33.34 17.0445 32.7828C17.0005 32.676 17.1535 32.6529 17.2185 32.5902C19.2451 31.2794 22.4034 31.2794 24.3885 32.6946C24.453 32.824 24.279 32.7828 24.235 32.824ZM26.3276 32.2251L25.3036 32.5461C25.1286 32.4604 24.977 32.3315 24.823 32.2021L24.867 32.1365C26.2621 31.324 27.5252 30.3336 28.7243 29.1531C29.3128 29.3888 29.8799 29.7128 30.4044 30.0759C29.1828 31.0466 27.7657 31.6876 26.3276 32.2251ZM6.91173 7.90198C7.45073 7.15422 8.04033 6.44445 8.67637 5.7777C9.24095 5.24111 9.76595 4.72609 10.377 4.33798C10.944 4.70257 11.5751 5.00639 12.1196 5.34843C11.4446 6.18148 10.747 7.02237 10.246 7.92158C10.3975 7.98871 10.682 7.96764 10.9005 7.92158C11.4446 7.12871 12.0311 6.33486 12.7311 5.62579C13.6657 5.97028 14.5823 6.33388 15.5423 6.59262L15.6269 6.67788L15.0843 7.92158C15.3248 7.96764 15.4773 7.9451 15.7154 7.92158C15.9109 7.55896 16.0624 7.15223 16.2804 6.7852C17.546 7.0655 18.8756 7.21496 20.2267 7.25661C20.3997 7.40901 20.2697 7.72949 20.3352 7.92158H20.9232C20.9873 7.71087 20.9012 7.47173 20.9873 7.28062C22.2523 7.21398 23.581 7.0851 24.8054 6.78422L24.9115 6.80676L25.5001 7.9206C25.6966 7.9206 25.9576 7.96666 26.1101 7.8765L25.5641 6.63476L25.6096 6.59164C26.6102 6.33388 27.5487 5.94774 28.5073 5.56208C29.1848 6.27018 29.8149 7.10715 30.3834 7.92011C30.6219 7.92011 30.8619 7.94363 31.0364 7.87601C30.7673 7.39676 30.4534 6.94422 30.0989 6.5245C29.8111 6.1134 29.49 5.72676 29.1388 5.36852V5.25728L30.6644 4.37866L30.8844 4.2929C32.2111 5.29961 33.3722 6.50867 34.3252 7.87601C34.5867 7.87601 34.8052 7.96617 35.0237 7.85788C32.1006 3.48239 27.2857 0.667164 22.0803 0.261909L22.0573 0.303561L22.0128 0.261909C21.4253 0.198695 20.7033 0.173703 20.0722 0.236917C19.8332 0.218296 19.5506 0.236917 19.2666 0.261909C14.0377 0.667164 9.22238 3.35204 6.2137 7.92256C6.43171 7.90198 6.69323 7.9892 6.91173 7.90198ZM15.9564 6.01585L15.8693 6.03447C14.9748 5.80073 14.1023 5.51896 13.2742 5.15536L13.3162 5.02648C14.5148 3.88912 15.7784 2.94385 17.173 2.21566C17.5015 2.34454 17.828 2.45088 18.1546 2.60328L18.0905 2.77087C17.261 3.80385 16.6089 4.91769 15.9564 6.01585ZM20.2912 6.5936C19.6826 6.67935 19.1376 6.57449 18.5251 6.52695C17.9395 6.44071 17.197 6.37847 16.6089 6.18246C17.241 5.00737 17.983 3.86756 18.8756 2.8184L20.2707 3.00902C20.3352 4.12335 20.2912 5.41213 20.2912 6.5936ZM20.9663 6.61663C20.9232 5.47535 20.9457 4.21058 20.9663 3.0296C21.4038 2.96688 21.8808 2.90023 22.3178 2.83702C23.1674 3.90872 23.9974 5.00737 24.5645 6.18246C23.3862 6.46824 22.1785 6.61396 20.9663 6.61663ZM27.9197 5.11174C27.0682 5.47486 26.1956 5.81886 25.26 6.01585C24.585 4.878 23.8444 3.74064 23.0139 2.6415C23.3194 2.47342 23.6919 2.34454 24.018 2.17352C25.437 2.88112 26.8081 3.88912 27.9618 5.04461L27.9197 5.11174ZM25.1286 1.44141C26.9592 1.91478 28.6808 2.72921 30.2499 3.8455L30.2064 3.93126L28.7043 4.76725H28.5933C27.4402 3.61225 26.0896 2.60328 24.715 1.80698C24.7585 1.65654 24.9775 1.54824 25.1286 1.44141ZM24.258 1.2258V1.27137C22.3609 2.6415 19.2891 2.77087 17.2855 1.50414C17.173 1.41838 16.9579 1.37673 16.9345 1.22629C19.2456 0.692156 21.9678 0.649033 24.258 1.2258ZM10.9645 3.88912C12.3386 2.88112 13.8632 2.12991 15.4763 1.61439C15.5423 1.54726 15.5844 1.48405 15.6704 1.48405V1.52815C15.8444 1.57029 15.9759 1.37575 16.1279 1.50316C16.2594 1.61439 16.4134 1.69917 16.5209 1.806C15.1708 2.6415 13.8407 3.63087 12.6202 4.83047C12.0316 4.61975 11.489 4.29584 10.964 3.93126L10.9645 3.88912ZM20.3137 21.0593C18.2655 21.6184 16.0414 21.1921 14.5603 19.6441C14.3868 19.4295 14.2768 19.1737 14.1018 18.96L11.161 18.9806C11.1146 20.7187 11.0941 22.7156 11.161 24.4337L14.4283 24.4126L14.4718 23.3816C14.8438 23.5531 15.2148 23.7672 15.5844 23.9598C17.8505 24.9056 20.7678 25.1202 23.0129 23.9598C24.6485 23.0606 25.5206 21.3225 25.2801 19.451C25.0415 17.6286 23.2974 15.9747 21.5338 15.5254L16.2589 13.9999L15.8689 13.8059C15.6943 13.6569 15.5849 13.4648 15.6274 13.2267C16.0414 12.52 17.0014 12.7347 17.7205 12.7538C19.2456 12.9689 20.8142 13.4839 21.7083 14.88C22.6659 14.88 23.777 14.8986 24.8221 14.8575C24.8665 13.0978 24.805 11.5532 24.779 9.77096C23.7985 9.74841 22.5994 9.74841 21.6203 9.7935C21.5763 10.0488 21.6623 10.4124 21.5533 10.6711L20.5517 10.1341C18.1536 9.12558 14.7974 9.02023 12.6192 10.5873C11.2021 11.6159 10.7675 13.4638 11.1381 15.0946C11.4201 16.6378 12.9017 17.7766 14.3188 18.3117C16.258 18.9977 18.2836 19.4946 20.2482 20.1591C20.4427 20.2463 20.7038 20.4409 20.6617 20.6766C20.6627 20.8672 20.4652 20.9775 20.3137 21.0593Z" fill="#99A5B8" stroke="#99A5B8" stroke-width="59.2684" mask="url(#path-1-inside-1_15848_9355)"/>
</g>
<g id="Vector_2">
<path d="M48.2188 2.6001V31.4001V2.6001Z" fill="#99A5B8"/>
<path d="M48.2188 2.6001V31.4001" stroke="#99A5B8"/>
</g>
<g id="iso">
<path d="M57.159 9.8H55.9531V3.82812H57.159V9.8Z" fill="#99A5B8"/>
<path d="M60.6945 8.2332C60.6945 7.98984 60.6316 7.80664 60.5059 7.68359C60.3828 7.55781 60.1572 7.42793 59.8291 7.29394C59.2303 7.06699 58.7996 6.80176 58.5371 6.49824C58.2746 6.19199 58.1434 5.83105 58.1434 5.41543C58.1434 4.9123 58.3211 4.50898 58.6766 4.20547C59.0348 3.89922 59.4887 3.74609 60.0383 3.74609C60.4047 3.74609 60.7314 3.82402 61.0186 3.97988C61.3057 4.13301 61.5258 4.35039 61.6789 4.63203C61.8348 4.91367 61.9127 5.23359 61.9127 5.5918H60.7109C60.7109 5.31289 60.6508 5.10098 60.5305 4.95605C60.4129 4.8084 60.242 4.73457 60.0178 4.73457C59.8072 4.73457 59.6432 4.79746 59.5256 4.92324C59.408 5.04629 59.3492 5.21309 59.3492 5.42363C59.3492 5.5877 59.4148 5.73672 59.5461 5.8707C59.6773 6.00195 59.9098 6.13867 60.2434 6.28086C60.8258 6.49141 61.2482 6.7498 61.5107 7.05605C61.776 7.3623 61.9086 7.75195 61.9086 8.225C61.9086 8.74453 61.7432 9.15059 61.4123 9.44316C61.0814 9.73574 60.6316 9.88203 60.0629 9.88203C59.6773 9.88203 59.326 9.80273 59.0088 9.64414C58.6916 9.48555 58.4428 9.25859 58.2623 8.96328C58.0846 8.66797 57.9957 8.31933 57.9957 7.91738H59.2057C59.2057 8.26191 59.2727 8.51211 59.4066 8.66797C59.5406 8.82383 59.7594 8.90176 60.0629 8.90176C60.484 8.90176 60.6945 8.67891 60.6945 8.2332Z" fill="#99A5B8"/>
<path d="M66.9125 7.35137C66.9125 8.15254 66.7225 8.77461 66.3424 9.21758C65.965 9.66055 65.44 9.88203 64.7674 9.88203C64.0975 9.88203 63.5711 9.66328 63.1883 9.22578C62.8055 8.78555 62.6113 8.17031 62.6059 7.38008V6.35879C62.6059 5.53848 62.7959 4.89863 63.176 4.43926C63.5561 3.97715 64.0838 3.74609 64.7592 3.74609C65.4236 3.74609 65.9473 3.97305 66.3301 4.42695C66.7129 4.87812 66.907 5.5125 66.9125 6.33008V7.35137ZM65.7025 6.35059C65.7025 5.81191 65.626 5.41133 65.4729 5.14883C65.3197 4.88633 65.0818 4.75508 64.7592 4.75508C64.4393 4.75508 64.2027 4.88223 64.0496 5.13652C63.8965 5.38809 63.8172 5.77227 63.8117 6.28906V7.35137C63.8117 7.87363 63.8897 8.25918 64.0455 8.50801C64.2014 8.7541 64.442 8.87715 64.7674 8.87715C65.0818 8.87715 65.3156 8.75683 65.4688 8.51621C65.6219 8.27285 65.6998 7.89687 65.7025 7.38828V6.35059Z" fill="#99A5B8"/>
</g>
<g id="22301:2019">
<path d="M59.3285 20.0002H55.8094V19.1799L57.4254 17.125C57.6305 16.8406 57.7809 16.5918 57.8766 16.3785C57.975 16.1625 58.0242 15.9561 58.0242 15.7592C58.0242 15.4939 57.9777 15.2861 57.8848 15.1357C57.7945 14.9854 57.6633 14.9102 57.491 14.9102C57.3023 14.9102 57.152 14.9977 57.0398 15.1727C56.9305 15.3477 56.8758 15.5937 56.8758 15.9109H55.7109C55.7109 15.5445 55.7861 15.2096 55.9365 14.9061C56.0896 14.6025 56.3029 14.3674 56.5764 14.2006C56.8525 14.0311 57.1643 13.9463 57.5115 13.9463C58.0447 13.9463 58.4576 14.0939 58.7502 14.3893C59.0455 14.6818 59.1932 15.0988 59.1932 15.6402C59.1932 15.9766 59.1111 16.3184 58.9471 16.6656C58.7857 17.0102 58.4918 17.4354 58.0652 17.9412L57.2982 19.0363H59.3285V20.0002Z" fill="#99A5B8"/>
<path d="M63.5777 20.0002H60.0586V19.1799L61.6746 17.125C61.8797 16.8406 62.0301 16.5918 62.1258 16.3785C62.2242 16.1625 62.2734 15.9561 62.2734 15.7592C62.2734 15.4939 62.227 15.2861 62.134 15.1357C62.0438 14.9854 61.9125 14.9102 61.7402 14.9102C61.5516 14.9102 61.4012 14.9977 61.2891 15.1727C61.1797 15.3477 61.125 15.5937 61.125 15.9109H59.9602C59.9602 15.5445 60.0354 15.2096 60.1857 14.9061C60.3389 14.6025 60.5521 14.3674 60.8256 14.2006C61.1018 14.0311 61.4135 13.9463 61.7607 13.9463C62.2939 13.9463 62.7068 14.0939 62.9994 14.3893C63.2947 14.6818 63.4424 15.0988 63.4424 15.6402C63.4424 15.9766 63.3604 16.3184 63.1963 16.6656C63.035 17.0102 62.741 17.4354 62.3145 17.9412L61.5475 19.0363H63.5777V20.0002Z" fill="#99A5B8"/>
<path d="M65.3414 16.4852H65.9033C66.1166 16.4852 66.2725 16.4113 66.3709 16.2637C66.4721 16.1133 66.5227 15.9137 66.5227 15.6648C66.5227 15.427 66.4707 15.2424 66.3668 15.1111C66.2656 14.9771 66.1289 14.9102 65.9566 14.9102C65.7953 14.9102 65.6627 14.973 65.5588 15.0988C65.4576 15.2246 65.407 15.3832 65.407 15.5746H64.2463C64.2463 15.2629 64.3174 14.984 64.4596 14.7379C64.6045 14.4891 64.8055 14.2949 65.0625 14.1555C65.3223 14.016 65.6094 13.9463 65.9238 13.9463C66.4734 13.9463 66.9041 14.098 67.2158 14.4016C67.5275 14.7051 67.6834 15.1207 67.6834 15.6484C67.6834 15.9191 67.6123 16.1707 67.4701 16.4031C67.3307 16.6328 67.1461 16.8092 66.9164 16.9322C67.198 17.0525 67.4072 17.233 67.5439 17.4736C67.6834 17.7143 67.7531 17.9986 67.7531 18.3268C67.7531 18.8572 67.5836 19.2824 67.2445 19.6023C66.9082 19.9223 66.4652 20.0822 65.9156 20.0822C65.4043 20.0822 64.9887 19.925 64.6688 19.6105C64.3516 19.2934 64.193 18.8777 64.193 18.3637H65.3537C65.3537 18.577 65.4098 18.7561 65.5219 18.901C65.634 19.0459 65.7762 19.1184 65.9484 19.1184C66.148 19.1184 66.3053 19.0445 66.4201 18.8969C66.5377 18.7492 66.5965 18.5523 66.5965 18.3062C66.5965 17.7184 66.3682 17.423 65.9115 17.4203H65.3414V16.4852Z" fill="#99A5B8"/>
<path d="M72.027 17.5311C72.027 18.3568 71.8766 18.9885 71.5758 19.426C71.2777 19.8635 70.8512 20.0822 70.2961 20.0822C69.7465 20.0822 69.3213 19.8703 69.0205 19.4465C68.7225 19.0199 68.568 18.4102 68.557 17.6172V16.4893C68.557 15.6662 68.7061 15.0373 69.0041 14.6025C69.3021 14.165 69.7301 13.9463 70.2879 13.9463C70.8457 13.9463 71.2736 14.1623 71.5717 14.5943C71.8697 15.0264 72.0215 15.643 72.027 16.4441V17.5311ZM70.8621 16.3211C70.8621 15.8508 70.8156 15.498 70.7227 15.2629C70.6297 15.0277 70.4848 14.9102 70.2879 14.9102C69.9188 14.9102 69.7273 15.3408 69.7137 16.2021V17.691C69.7137 18.1723 69.7602 18.5305 69.8531 18.7656C69.9488 19.0008 70.0965 19.1184 70.2961 19.1184C70.4848 19.1184 70.6242 19.009 70.7145 18.7902C70.8074 18.5687 70.8566 18.2311 70.8621 17.7771V16.3211Z" fill="#99A5B8"/>
<path d="M75.3615 20.0002H74.1967V15.4393L73.0605 15.8781V14.9102L75.2385 14.0201H75.3615V20.0002Z" fill="#99A5B8"/>
<path d="M77.1908 19.4096C77.1908 19.2236 77.2523 19.0705 77.3754 18.9502C77.5012 18.8299 77.6639 18.7697 77.8635 18.7697C78.0576 18.7697 78.2189 18.8299 78.3475 18.9502C78.476 19.0678 78.5402 19.2209 78.5402 19.4096C78.5402 19.601 78.4746 19.7555 78.3434 19.873C78.2148 19.9879 78.0549 20.0453 77.8635 20.0453C77.6693 20.0453 77.508 19.9865 77.3795 19.8689C77.2537 19.7514 77.1908 19.5982 77.1908 19.4096ZM77.1908 16.0545C77.1908 15.8686 77.2523 15.7154 77.3754 15.5951C77.5012 15.4748 77.6639 15.4146 77.8635 15.4146C78.0576 15.4146 78.2189 15.4748 78.3475 15.5951C78.476 15.7127 78.5402 15.8658 78.5402 16.0545C78.5402 16.2459 78.4746 16.4004 78.3434 16.518C78.2148 16.6328 78.0549 16.6902 77.8635 16.6902C77.6693 16.6902 77.508 16.6314 77.3795 16.5139C77.2537 16.3963 77.1908 16.2432 77.1908 16.0545Z" fill="#99A5B8"/>
<path d="M82.8797 20.0002H79.3605V19.1799L80.9766 17.125C81.1816 16.8406 81.332 16.5918 81.4277 16.3785C81.5262 16.1625 81.5754 15.9561 81.5754 15.7592C81.5754 15.4939 81.5289 15.2861 81.4359 15.1357C81.3457 14.9854 81.2145 14.9102 81.0422 14.9102C80.8535 14.9102 80.7031 14.9977 80.591 15.1727C80.4816 15.3477 80.427 15.5937 80.427 15.9109H79.2621C79.2621 15.5445 79.3373 15.2096 79.4877 14.9061C79.6408 14.6025 79.8541 14.3674 80.1275 14.2006C80.4037 14.0311 80.7154 13.9463 81.0627 13.9463C81.5959 13.9463 82.0088 14.0939 82.3014 14.3893C82.5967 14.6818 82.7443 15.0988 82.7443 15.6402C82.7443 15.9766 82.6623 16.3184 82.4982 16.6656C82.3369 17.0102 82.043 17.4354 81.6164 17.9412L80.8494 19.0363H82.8797V20.0002Z" fill="#99A5B8"/>
<path d="M87.0797 17.5311C87.0797 18.3568 86.9293 18.9885 86.6285 19.426C86.3305 19.8635 85.9039 20.0822 85.3488 20.0822C84.7992 20.0822 84.374 19.8703 84.0732 19.4465C83.7752 19.0199 83.6207 18.4102 83.6098 17.6172V16.4893C83.6098 15.6662 83.7588 15.0373 84.0568 14.6025C84.3549 14.165 84.7828 13.9463 85.3406 13.9463C85.8984 13.9463 86.3264 14.1623 86.6244 14.5943C86.9225 15.0264 87.0742 15.643 87.0797 16.4441V17.5311ZM85.9148 16.3211C85.9148 15.8508 85.8684 15.498 85.7754 15.2629C85.6824 15.0277 85.5375 14.9102 85.3406 14.9102C84.9715 14.9102 84.7801 15.3408 84.7664 16.2021V17.691C84.7664 18.1723 84.8129 18.5305 84.9059 18.7656C85.0016 19.0008 85.1492 19.1184 85.3488 19.1184C85.5375 19.1184 85.677 19.009 85.7672 18.7902C85.8602 18.5687 85.9094 18.2311 85.9148 17.7771V16.3211Z" fill="#99A5B8"/>
<path d="M90.4143 20.0002H89.2494V15.4393L88.1133 15.8781V14.9102L90.2912 14.0201H90.4143V20.0002Z" fill="#99A5B8"/>
<path d="M94.36 17.691C94.1139 17.9426 93.8445 18.0684 93.552 18.0684C93.098 18.0684 92.7398 17.8865 92.4773 17.5229C92.2176 17.1564 92.0877 16.6684 92.0877 16.0586C92.0877 15.6648 92.1615 15.3053 92.3092 14.9799C92.4568 14.6518 92.6619 14.3975 92.9244 14.217C93.1897 14.0365 93.485 13.9463 93.8104 13.9463C94.1467 13.9463 94.4461 14.0461 94.7086 14.2457C94.9711 14.4453 95.1748 14.7324 95.3197 15.107C95.4646 15.4789 95.5371 15.9027 95.5371 16.3785V16.801C95.5371 17.8182 95.3129 18.6139 94.8645 19.1881C94.4188 19.7596 93.7857 20.0508 92.9654 20.0617H92.8465V19.0609H92.9244C93.3783 19.0582 93.7188 18.9406 93.9457 18.7082C94.1754 18.4758 94.3135 18.1367 94.36 17.691ZM93.8473 17.1578C94.0715 17.1578 94.2479 17.0047 94.3764 16.6984V16.1652C94.3764 15.7742 94.323 15.468 94.2164 15.2465C94.1098 15.0223 93.9717 14.9102 93.8022 14.9102C93.6354 14.9102 93.5 15.0209 93.3961 15.2424C93.2949 15.4611 93.2443 15.7291 93.2443 16.0463C93.2443 16.3908 93.2977 16.6629 93.4043 16.8625C93.5109 17.0594 93.6586 17.1578 93.8473 17.1578Z" fill="#99A5B8"/>
</g>
<g id="Certified">
<path d="M59.948 28.2108C59.918 28.8917 59.7266 29.4071 59.3738 29.7571C59.0211 30.1071 58.5234 30.2821 57.8809 30.2821C57.2055 30.2821 56.6873 30.0606 56.3264 29.6177C55.9682 29.172 55.7891 28.5376 55.7891 27.7146V26.7097C55.7891 25.8894 55.975 25.2577 56.3469 24.8147C56.7188 24.369 57.2355 24.1462 57.8973 24.1462C58.548 24.1462 59.0416 24.328 59.3779 24.6917C59.717 25.0554 59.9098 25.5776 59.9563 26.2585H58.7463C58.7354 25.8374 58.6697 25.5476 58.5494 25.389C58.4318 25.2276 58.2145 25.147 57.8973 25.147C57.5746 25.147 57.3463 25.2604 57.2123 25.4874C57.0783 25.7116 57.0072 26.0821 56.999 26.5989V27.7269C56.999 28.3202 57.0646 28.7276 57.1959 28.9491C57.3299 29.1706 57.5582 29.2813 57.8809 29.2813C58.198 29.2813 58.4168 29.2048 58.5371 29.0517C58.6574 28.8958 58.7258 28.6155 58.7422 28.2108H59.948Z" fill="#99A5B8"/>
<path d="M62.4254 30.2821C61.8293 30.2821 61.3645 30.1044 61.0309 29.7489C60.6973 29.3935 60.5305 28.8849 60.5305 28.2231V27.8704C60.5305 27.1704 60.6836 26.6304 60.9898 26.2503C61.2961 25.8702 61.735 25.6802 62.3064 25.6802C62.8643 25.6802 63.284 25.8593 63.5656 26.2175C63.8473 26.573 63.9908 27.1007 63.9963 27.8007V28.3708H61.6871C61.7035 28.6989 61.776 28.9396 61.9045 29.0927C62.033 29.2431 62.2313 29.3183 62.4992 29.3183C62.8875 29.3183 63.2115 29.1856 63.4713 28.9204L63.9266 29.6218C63.7844 29.8187 63.5779 29.9786 63.3072 30.1017C63.0365 30.222 62.7426 30.2821 62.4254 30.2821ZM61.6953 27.5587H62.8561V27.4521C62.8506 27.1868 62.8068 26.9858 62.7248 26.8491C62.6428 26.7124 62.5006 26.644 62.2982 26.644C62.0959 26.644 61.9482 26.7165 61.8553 26.8614C61.765 27.0063 61.7117 27.2388 61.6953 27.5587Z" fill="#99A5B8"/>
<path d="M66.8428 26.8819L66.4572 26.8491C66.14 26.8491 65.9254 26.9886 65.8133 27.2675V30.2001H64.6484V25.7622H65.7436L65.7764 26.2421C65.9596 25.8675 66.2125 25.6802 66.5352 25.6802C66.6664 25.6802 66.773 25.6979 66.8551 25.7335L66.8428 26.8819Z" fill="#99A5B8"/>
<path d="M68.9961 24.6712V25.7622H69.5908V26.6358H68.9961V28.8384C68.9961 29.0134 69.0193 29.1337 69.0658 29.1993C69.115 29.2649 69.208 29.2978 69.3447 29.2978C69.4568 29.2978 69.5484 29.2882 69.6195 29.269L69.6113 30.1714C69.4145 30.2452 69.2012 30.2821 68.9715 30.2821C68.2223 30.2821 67.8436 29.8528 67.8354 28.9942V26.6358H67.3227V25.7622H67.8354V24.6712H68.9961Z" fill="#99A5B8"/>
<path d="M71.4488 30.2001H70.284V25.7622H71.4488V30.2001ZM70.2307 24.6138C70.2307 24.4333 70.2881 24.2856 70.4029 24.1708C70.5178 24.056 70.6709 23.9985 70.8623 23.9985C71.0537 23.9985 71.2068 24.056 71.3217 24.1708C71.4365 24.2856 71.4939 24.4333 71.4939 24.6138C71.4939 24.7915 71.4365 24.9392 71.3217 25.0567C71.2096 25.1743 71.0564 25.2331 70.8623 25.2331C70.6682 25.2331 70.5137 25.1743 70.3988 25.0567C70.2867 24.9392 70.2307 24.7915 70.2307 24.6138Z" fill="#99A5B8"/>
<path d="M72.5809 30.2001V26.6358H72.0436V25.7622H72.5809V25.5612C72.5863 25.0034 72.7381 24.5728 73.0361 24.2692C73.3369 23.9657 73.7648 23.814 74.3199 23.814C74.6398 23.814 75.0322 23.8946 75.4971 24.056L75.3289 25.0444C74.9953 24.9187 74.685 24.8558 74.3979 24.8558C73.9686 24.8558 73.7512 25.0923 73.7457 25.5653V25.7622H74.4307V26.6358H73.7457V30.2001H72.5809ZM76.0262 30.2001H74.8613V25.7622H76.0262V30.2001Z" fill="#99A5B8"/>
<path d="M78.725 30.2821C78.1289 30.2821 77.6641 30.1044 77.3305 29.7489C76.9969 29.3935 76.8301 28.8849 76.8301 28.2231V27.8704C76.8301 27.1704 76.9832 26.6304 77.2895 26.2503C77.5957 25.8702 78.0346 25.6802 78.6061 25.6802C79.1639 25.6802 79.5836 25.8593 79.8652 26.2175C80.1469 26.573 80.2904 27.1007 80.2959 27.8007V28.3708H77.9867C78.0031 28.6989 78.0756 28.9396 78.2041 29.0927C78.3326 29.2431 78.5309 29.3183 78.7988 29.3183C79.1871 29.3183 79.5111 29.1856 79.7709 28.9204L80.2262 29.6218C80.084 29.8187 79.8775 29.9786 79.6068 30.1017C79.3361 30.222 79.0422 30.2821 78.725 30.2821ZM77.9949 27.5587H79.1557V27.4521C79.1502 27.1868 79.1064 26.9858 79.0244 26.8491C78.9424 26.7124 78.8002 26.644 78.5979 26.644C78.3955 26.644 78.2479 26.7165 78.1549 26.8614C78.0646 27.0063 78.0113 27.2388 77.9949 27.5587Z" fill="#99A5B8"/>
<path d="M80.7963 27.8458C80.7963 27.1185 80.9193 26.5757 81.1654 26.2175C81.4115 25.8593 81.7697 25.6802 82.24 25.6802C82.5818 25.6802 82.8662 25.8278 83.0932 26.1231V23.9001H84.2621V30.2001H83.208L83.1547 29.7489C82.9168 30.1044 82.6105 30.2821 82.2359 30.2821C81.7711 30.2821 81.4156 30.1044 81.1695 29.7489C80.9262 29.3935 80.8018 28.8712 80.7963 28.1821V27.8458ZM81.9611 28.137C81.9611 28.5745 82.0076 28.8808 82.1006 29.0558C82.1936 29.228 82.3508 29.3142 82.5723 29.3142C82.802 29.3142 82.9756 29.2116 83.0932 29.0065V26.9804C82.9783 26.7616 82.8061 26.6522 82.5764 26.6522C82.3631 26.6522 82.2072 26.7384 82.1088 26.9106C82.0104 27.0829 81.9611 27.3892 81.9611 27.8294V28.137Z" fill="#99A5B8"/>
</g>
</g>
</svg>
