<svg xmlns="http://www.w3.org/2000/svg" xmlns:xlink="http://www.w3.org/1999/xlink" width="940" zoomAndPan="magnify" viewBox="0 0 705 591.000005" height="788" preserveAspectRatio="xMidYMid meet" version="1.0"><defs><filter x="0%" y="0%" width="100%" height="100%" id="ce10eb7060"><feColorMatrix values="0 0 0 0 1 0 0 0 0 1 0 0 0 0 1 0 0 0 1 0" color-interpolation-filters="sRGB"/></filter><mask id="35694b5b51"><g filter="url(#ce10eb7060)"><rect x="-70.5" width="846" fill="#000000" y="-59.100001" height="709.200006" fill-opacity="0.84"/></g></mask><clipPath id="cbbf025690"><path d="M 0.878906 1 L 441.882812 1 L 441.882812 442 L 0.878906 442 Z M 0.878906 1 " clip-rule="nonzero"/></clipPath><clipPath id="bbb0a0f128"><rect x="0" width="448" y="0" height="448"/></clipPath></defs><g mask="url(#35694b5b51)"><g transform="matrix(1, 0, 0, 1, 131, 58)"><g clip-path="url(#bbb0a0f128)"><g clip-path="url(#cbbf025690)"><path fill="#5280c1" d="M 221.207031 441.949219 C 99.449219 441.949219 0.878906 342.800781 0.878906 221.617188 C 0.878906 99.859375 100.027344 1.289062 221.207031 1.289062 C 342.96875 1.289062 441.539062 100.4375 441.539062 221.617188 C 442.117188 342.800781 342.96875 441.949219 221.207031 441.949219 Z M 221.207031 56.371094 C 130.757812 56.371094 56.542969 130.589844 56.542969 221.039062 C 56.542969 311.488281 130.757812 386.285156 221.207031 386.285156 C 311.660156 386.285156 386.453125 312.070312 386.453125 221.039062 C 386.453125 130.007812 312.238281 56.371094 221.207031 56.371094 Z M 221.207031 56.371094 " fill-opacity="1" fill-rule="nonzero"/></g></g></g></g></svg>